<svg width="48" height="48" viewBox="0 0 48 48" fill="none" xmlns="http://www.w3.org/2000/svg">
<rect width="48" height="48" rx="24" fill="white"/>
<path fill-rule="evenodd" clip-rule="evenodd" d="M33.7675 28.5749L35.1537 29.2016C35.4058 29.327 35.5318 29.4523 35.5318 29.4523V30.3297C35.4058 30.9564 35.2797 31.5831 35.0277 32.0845C34.9017 32.3351 34.6496 32.5858 34.3976 32.8365C34.2715 32.9619 34.1455 33.0559 34.0195 33.1499C33.8935 33.2439 33.7675 33.3379 33.6414 33.4632L33.3894 33.7139C33.2478 33.8547 33.1063 33.9164 32.9424 33.9878C32.8145 34.0436 32.673 34.1053 32.5072 34.2153C32.0031 34.4659 31.247 34.7166 30.6168 34.7166H29.3566C29.1676 34.6539 28.947 34.6226 28.7265 34.5913C28.5059 34.5599 28.2854 34.5286 28.0964 34.4659C24.6937 33.5886 21.6691 31.9591 19.0226 29.703C18.8579 29.4573 18.6395 29.2652 18.4024 29.0566C18.2766 28.9459 18.1455 28.8306 18.0144 28.7003L17.5103 28.1989C15.4939 26.3188 13.9816 24.188 12.8474 21.8065L12.7214 21.4305C12.3433 20.5531 12.0913 19.5504 12.0913 18.5477C12.0913 17.1689 12.5954 15.7902 13.4775 14.6621C13.6036 14.5368 13.6981 14.4114 13.7926 14.2861C13.8871 14.1608 13.9816 14.0354 14.1077 13.9101C14.2337 13.8474 14.3597 13.7534 14.4857 13.6594C14.6118 13.5654 14.7378 13.4714 14.8638 13.4087L14.9898 13.2834C15.1159 13.2834 15.2419 13.252 15.3679 13.2207C15.4939 13.1894 15.62 13.158 15.746 13.158H16.7542H17.1322C17.5103 13.2834 17.7624 13.4087 18.0144 13.7847C18.3925 14.5368 19.9048 17.921 20.0308 18.5477C20.1568 18.9237 20.0308 19.4251 19.7788 19.8011C19.6527 19.9264 19.5582 20.0831 19.4637 20.2398C19.3692 20.3965 19.2747 20.5531 19.1486 20.6785C18.7706 21.0545 18.2665 21.6812 18.2665 21.6812C18.1404 21.8065 18.1404 22.0572 18.1404 22.3079C18.1886 22.4037 18.2183 22.4811 18.2437 22.5473C18.2849 22.6543 18.3146 22.7318 18.3925 22.8093L18.5185 23.0599C19.1486 24.188 20.0308 25.1907 20.913 26.0681C21.039 26.1935 21.1965 26.3188 21.3541 26.4441C21.5116 26.5695 21.6691 26.6948 21.7951 26.8202C22.8033 27.8229 24.0636 28.5749 25.4499 29.2016L26.08 29.4523C26.206 29.5777 26.458 29.703 26.5841 29.703H26.7101C26.9621 29.703 27.2142 29.5777 27.3402 29.327C29.1046 27.3215 29.2306 27.1962 29.2306 27.1962C29.4826 27.0708 29.7347 26.9455 30.1127 26.9455C30.1758 26.9455 30.2388 26.9768 30.3018 27.0082C30.3648 27.0395 30.4278 27.0708 30.4908 27.0708C31.7511 27.6975 33.7675 28.5749 33.7675 28.5749Z" fill="#35373E"/>
<mask id="path-3-inside-1" fill="white">
<path d="M22.6196 15.5752C23.7972 15.0853 25.0803 14.9039 26.3476 15.048C27.6148 15.1922 28.8244 15.6571 29.862 16.3989C30.8995 17.1407 31.7307 18.1348 32.2771 19.2873C32.8234 20.4398 33.0668 21.7126 32.9843 22.9854L31.4874 22.8883C31.5535 21.8701 31.3587 20.8519 30.9217 19.9299C30.4846 19.0079 29.8196 18.2126 28.9896 17.6191C28.1595 17.0257 27.1919 16.6537 26.1781 16.5384C25.1642 16.4231 24.1378 16.5683 23.1957 16.9601L22.6196 15.5752Z"/>
</mask>
<path d="M22.6196 15.5752C23.7972 15.0853 25.0803 14.9039 26.3476 15.048C27.6148 15.1922 28.8244 15.6571 29.862 16.3989C30.8995 17.1407 31.7307 18.1348 32.2771 19.2873C32.8234 20.4398 33.0668 21.7126 32.9843 22.9854L31.4874 22.8883C31.5535 21.8701 31.3587 20.8519 30.9217 19.9299C30.4846 19.0079 29.8196 18.2126 28.9896 17.6191C28.1595 17.0257 27.1919 16.6537 26.1781 16.5384C25.1642 16.4231 24.1378 16.5683 23.1957 16.9601L22.6196 15.5752Z" fill="black" stroke="#35373E" stroke-width="2" mask="url(#path-3-inside-1)"/>
<mask id="path-4-inside-2" fill="white">
<path d="M23.7735 18.3444C24.4806 18.0506 25.2509 17.9421 26.0116 18.0292C26.7724 18.1162 27.4983 18.396 28.1207 18.8419C28.7432 19.2878 29.2415 19.8852 29.5687 20.5775C29.8958 21.2698 30.0408 22.0341 29.9901 22.7981L28.7677 22.7169C28.8046 22.1609 28.699 21.6047 28.461 21.1009C28.2229 20.5971 27.8602 20.1623 27.4073 19.8378C26.9543 19.5133 26.426 19.3097 25.8724 19.2463C25.3187 19.183 24.7581 19.2619 24.2435 19.4757L23.7735 18.3444Z"/>
</mask>
<path d="M23.7735 18.3444C24.4806 18.0506 25.2509 17.9421 26.0116 18.0292C26.7724 18.1162 27.4983 18.396 28.1207 18.8419C28.7432 19.2878 29.2415 19.8852 29.5687 20.5775C29.8958 21.2698 30.0408 22.0341 29.9901 22.7981L28.7677 22.7169C28.8046 22.1609 28.699 21.6047 28.461 21.1009C28.2229 20.5971 27.8602 20.1623 27.4073 19.8378C26.9543 19.5133 26.426 19.3097 25.8724 19.2463C25.3187 19.183 24.7581 19.2619 24.2435 19.4757L23.7735 18.3444Z" fill="black" stroke="#35373E" stroke-width="2" mask="url(#path-4-inside-2)"/>
</svg>
